<svg xmlns="http://www.w3.org/2000/svg" viewBox="0 0 1280 320" width="1280" height="320" role="img" aria-label="qbittorrent-orphaned: the word orphaned with its a tipped over"><defs><clipPath id="cl"><rect width="1280" height="320" rx="18"/></clipPath></defs><g clip-path="url(#cl)"><rect width="1280" height="320" fill="#F3F0EA"/><path fill="#2F6FD1"  d="M87.4,78l0-10.9l-.8,0q-.6,1.3-1.9,2.4q-1.4,1.1-4.3,1.1q-2.4,0-4.4-1.2q-1.9-1.2-3.1-3.5q-1.1-2.2-1.1-5.5l0-.7q0-3.2 1.2-5.4q1.2-2.3 3.2-3.5q2-1.2 4.4-1.2q2.4,0 3.9,.9q1.4,.9 2.1,2.5l.8,0l0-2.8l5,0l0,27.8zM82.1,65.8q2.3,0 3.8-1.5q1.5-1.5 1.5-4l0-.5q0-2.4-1.5-3.9q-1.5-1.5-3.8-1.5q-2.3,0-3.8,1.5q-1.5,1.5-1.5,3.9l0,.5q0,2.5 1.5,4q1.5,1.5 3.8,1.5zM108.7,70.6q-2.7,0-4.1-1.1q-1.4-1.1-2.1-2.4l-.7,0l0,2.9l-5,0l0-28l5,0l0,11l.7,0q.8-1.6 2.4-2.5q1.5-.9 3.8-.9q2.4,0 4.3,1.2q2,1.2 3.2,3.5q1.2,2.2 1.2,5.4l0,.7q0,3.3-1.2,5.5q-1.1,2.3-3.1,3.5q-1.9,1.2-4.4,1.2zM107.1,65.8q2.3,0 3.8-1.5q1.5-1.5 1.5-4l0-.5q0-2.4-1.5-3.9q-1.5-1.5-3.8-1.5q-2.3,0-3.8,1.5q-1.5,1.5-1.5,3.9l0,.5q0,2.5 1.5,4q1.5,1.5 3.8,1.5zM131.6,48.1q-1.5,0-2.6-1.1q-1.2-1.1-1.2-2.7q0-1.6 1.2-2.7q1.1-1.1 2.6-1.1q1.6,0 2.7,1.1q1.1,1.1 1.1,2.7q0,1.6-1.1,2.7q-1.1,1.1-2.7,1.1zM122.4,70l0-4.8l6.8,0l0-10.2l-6.3,0l0-4.8l11.3,0l0,15l5.8,0l0,4.8zM155,70q-1.4,0-2.3-.9q-.8-.9-.8-2.2l0-11.9l-5.9,0l0-4.8l5.9,0l0-8.2l5,0l0,8.2l7.2,0l0,4.8l-7.2,0l0,9q0,1.2 1.1,1.2l5.4,0l0,4.8zM179.4,70q-1.3,0-2.2-.9q-.8-.9-.8-2.2l0-11.9l-5.9,0l0-4.8l5.9,0l0-8.2l5,0l0,8.2l7.2,0l0,4.8l-7.2,0l0,9q0,1.2 1.1,1.2l5.3,0l0,4.8zM204.6,70.6q-2.7,0-5-1.2q-2.4-1.2-3.8-3.5q-1.5-2.3-1.5-5.6l0-.5q0-3.2 1.5-5.5q1.4-2.3 3.8-3.5q2.3-1.2 5-1.2q2.8,0 5.1,1.2q2.4,1.2 3.8,3.5q1.5,2.3 1.5,5.5l0,.5q0,3.3-1.5,5.6q-1.4,2.3-3.8,3.5q-2.3,1.2-5.1,1.2zM204.6,65.8q2.2,0 3.8-1.5q1.5-1.4 1.5-3.8l0-.8q0-2.5-1.5-3.9q-1.6-1.4-3.8-1.4q-2.2,0-3.7,1.4q-1.5,1.4-1.5,3.9l0,.8q0,2.4 1.5,3.8q1.5,1.5 3.7,1.5zM218.6,70l0-4.8l4,0l0-10.2l-3.6,0l0-4.8l8.4,0l0,2.8l.8,0q.5-1.6 1.9-2.5q1.3-.9 3.2-.9q2.9,0 4.7,1.9q1.8,1.8 1.8,5.6l0,.9l-5.2,.5l0-.6q0-1.6-.8-2.6q-.8-1-2.5-1q-1.7,0-2.7,1.2q-.9,1.1-.9,3.3l0,6.4l4.5,0l0,4.8zM243,70l0-4.8l4.1,0l0-10.2l-3.6,0l0-4.8l8.4,0l0,2.8l.7,0q.6-1.6 2-2.5q1.3-.9 3.2-.9q2.9,0 4.7,1.9q1.8,1.8 1.8,5.6l0,.9l-5.2,.5l0-.6q0-1.6-.8-2.6q-.9-1-2.5-1q-1.7,0-2.7,1.2q-.9,1.1-.9,3.3l0,6.4l4.5,0l0,4.8zM278.3,70.6q-3,0-5.3-1.3q-2.2-1.3-3.5-3.6q-1.3-2.4-1.3-5.7l0-.2q0-3.1 1.4-5.4q1.3-2.2 3.6-3.5q2.2-1.3 5-1.3q2.6,0 4.4,.9q1.8,.9 3,2.3q1.2,1.4 1.8,3q.6,1.7 .6,3.2l0,2.7l-14.6,0q.1,1.8 1.5,2.9q1.4,1.2 3.3,1.2q1.9,0 2.9-.7q1-.7 1.4-1.6l4.3,2.4q-.4,1-1.4,2.1q-1,1.1-2.8,1.8q-1.7,.8-4.3,.8zM273.5,57.4l9.3,0q-.2-1.4-1.5-2.3q-1.2-.9-3.1-.9q-1.9,0-3.1,.9q-1.3,1-1.6,2.3zM293.4,70l0-19.8l5.1,0l0,2.9l.7,0q.7-1.7 2.2-2.6q1.5-.9 3.6-.9q1.9,0 3.5,.8q1.5,.8 2.5,2.6q.9,1.7 .9,4.4l0,12.6l-5,0l0-11.3q0-2.1-1-3.3q-1.1-1.2-3-1.2q-2.2,0-3.3,1.5q-1.1,1.5-1.1,4l0,10.3zM326.3,70q-1.3,0-2.2-.9q-.9-.9-.9-2.2l0-11.9l-5.8,0l0-4.8l5.8,0l0-8.2l5.1,0l0,8.2l7.1,0l0,4.8l-7.1,0l0,9q0,1.2 1.1,1.2l5.3,0l0,4.8zM345.3,61.3l0-4.6l12.5,0l0,4.6z"/><path fill="#161A22"  d="M162,185q0,21-12,32q-12,11-34,11q-22,0-34-11q-12-11-12-32q0-21 12-32q12-11 34-11q22,0 34,11q12,11 12,32zM101,180l0,9q0,18 15,18q15,0 15-18l0-9q0-17-15-17q-15,0-15,17z"/><path fill="#161A22"  d="M237,143l0,27l-10,0q-10,0-14,5q-5,5-5,14l0,37l-31,0l0-82l26,0l2,12q3-7 9-11q6-3 13-3q4,0 7,0q3,1 3,1z"/><path fill="#161A22"  d="M336,185q0,21-9,32q-9,11-26,11q-14,0-23-9l0,38l-31,0l0-113l25,0l3,11q9-13 26-13q17,0 26,11q9,11 9,32zM278,182l0,5q0,8 3,13q3,5 10,5q14,0 14-16l0-8q0-16-14-16q-7,0-10,5q-3,4-3,12z"/><path fill="#161A22"  d="M408,142q14,0 21,8q7,8 7,23l0,53l-31,0l0-50q0-5-3-8q-2-3-7-3q-6,0-10,3q-3,4-3,10l0,48l-31,0l0-113l31,0l0,39q5-5 11-8q7-2 15-2z"/><g transform="translate(465.4,235.1) rotate(-30)"><path fill="#F5A524"  d="M93-57l0,32q0,2 1,4q1,2 4,2l5,0l0,18q0,0-2,1q-2,0-6,1q-3,1-8,1q-9,0-15-3q-6-3-8-7q-6,4-13,7q-7,3-17,3q-29,0-29-23q0-12 6-19q7-6 19-8q12-3 32-3l0-4q0-4-4-7q-3-2-8-2q-5,0-9,1q-3,2-3,6l0,0l-31,0q0,0 0-2q0-12 11-18q11-7 32-7q19,0 31,6q12,6 12,21zM36-25q0,8 10,8q6,0 11-4q5-3 5-8l0-7q-14,0-20,3q-6,3-6,8z"/></g><path fill="#161A22"  d="M655,173l0,53l-31,0l0-50q0-5-3-8q-2-3-7-3q-6,0-10,3q-3,4-3,10l0,48l-31,0l0-82l25,0l2,12q5-6 13-10q8-4 16-4q15,0 22,8q7,8 7,23z"/><path fill="#161A22"  d="M763,185l0,5l-62,0q0,9 4,14q4,4 12,4q8,0 12-3q4-3 4-9l30,0q0,15-12,23q-11,9-33,9q-23,0-36-11q-12-11-12-32q0-21 12-32q13-11 34-11q23,0 35,10q12,11 12,33zM701,175l30,0q0-6-3-10q-4-3-11-3q-14,0-16,13z"/><path fill="#161A22"  d="M838,226l-3-12q-9,14-26,14q-17,0-26-11q-9-11-9-32q0-22 9-32q9-11 26-11q14,0 23,9l0-38l31,0l0,113zM805,181l0,8q0,16 13,16q7,0 11-5q3-5 3-13l0-5q0-7-3-12q-4-5-11-5q-13,0-13,16z"/><path fill="#5A6170"  d="M68,298l0-21.8l14.2,0l0,2.8l-11,0l0,6.6l10.2,0l0,2.8l-10.2,0l0,9.6zM84.6,298l0-15.5l3.1,0l0,15.5zM86.2,279.9q-.8,0-1.4-.6q-.6-.5-.6-1.3q0-.8 .6-1.4q.6-.5 1.4-.5q.8,0 1.4,.5q.5,.6 .5,1.4q0,.8-.5,1.3q-.6,.6-1.4,.6zM94.3,289.1l0,8.9l-3.1,0l0-15.5l3.1,0l0,3.9l-.8,0q.8-2.1 2.2-3.1q1.3-1.1 3.2-1.1q1.6,0 2.9,.7q1.3,.7 2,2.1q.7,1.3 .7,3.4l0,9.6l-3.1,0l0-9.3q0-1.8-.9-2.8q-.8-.9-2.4-.9q-1.1,0-1.9,.4q-.9,.4-1.4,1.4q-.5,.9-.5,2.3zM114,298.3q-2,0-3.6-1q-1.5-1-2.3-2.8q-.9-1.8-.9-4.2q0-2.4 .9-4.2q.8-1.8 2.3-2.9q1.6-1 3.5-1q1.1,0 1.9,.3q.9,.3 1.7,.9q.7,.5 1.2,1.4l0,0l0-8.6l3.1,0l0,21.8l-3,0l0-2.4l-.1,0q-.5,.9-1.2,1.5q-.7,.6-1.6,.9q-.9,.3-1.9,.3zM114.6,295.6q1.3,0 2.3-.6q1-.7 1.5-1.9q.5-1.2 .5-2.8q0-1.7-.5-2.9q-.5-1.2-1.5-1.9q-1-.6-2.3-.6q-1.3,0-2.2,.6q-.9,.6-1.5,1.8q-.5,1.2-.5,3q0,1.7 .5,2.9q.6,1.2 1.5,1.8q.9,.6 2.2,.6zM139.9,282.5l0,2.6l-9,0l0-2.6zM133.7,278.3l3.1,0l0,15.6q0,.9 .3,1.2q.4,.4 1.3,.4q.3,0 .8,0q.4,0 .7,0l0,2.5q-.4,0-.9,0q-.5,0-1,0q-2.2,0-3.3-.9q-1-.9-1-2.8zM145.4,289.1l0,8.9l-3.1,0l0-21.8l3.1,0l0,10.2l-.7,0q.7-2.1 2.1-3.1q1.3-1.1 3.3-1.1q1.5,0 2.8,.7q1.3,.7 2,2.1q.7,1.3 .7,3.4l0,9.6l-3,0l0-9.3q0-1.8-.9-2.8q-.9-.9-2.5-.9q-1.1,0-1.9,.4q-.9,.4-1.4,1.4q-.5,.9-.5,2.3zM165.7,298.4q-2.3,0-3.9-1.1q-1.7-1-2.5-2.9q-.9-1.8-.9-4.1q0-2.4 .9-4.2q.9-1.8 2.5-2.9q1.7-1 3.8-1q1.6,0 2.9,.6q1.4,.6 2.3,1.6q1,1.1 1.5,2.6q.5,1.5 .5,3.3l0,.8l-13,0l0-2.3l11.4,0l-1.4,.7q0-1.5-.5-2.5q-.5-1.1-1.5-1.7q-.9-.5-2.2-.5q-1.3,0-2.2,.5q-.9,.6-1.5,1.7q-.5,1-.5,2.5l0,1.3q0,1.5 .5,2.6q.5,1.1 1.5,1.7q1,.7 2.4,.7q1,0 1.8-.3q.7-.4 1.3-.9q.5-.6 .7-1.3l3,0q-.3,1.5-1.3,2.6q-.9,1.2-2.4,1.8q-1.4,.7-3.2,.7zM190.1,282.5l0,2.6l-9,0l0-2.6zM183.9,298l0-18q0-1.2 .5-2.1q.5-.8 1.5-1.3q1-.4 2.4-.4q.6,0 1.1,0q.5,0 .7,0l0,2.5q-.1,0-.6,0q-.5,0-.8,0q-.9,0-1.3,.4q-.4,.5-.4,1.4l0,17.5zM192.4,298l0-15.5l3.1,0l0,15.5zM194,279.9q-.8,0-1.4-.6q-.6-.5-.6-1.3q0-.8 .6-1.4q.6-.5 1.4-.5q.8,0 1.4,.5q.5,.6 .5,1.4q0,.8-.5,1.3q-.6,.6-1.4,.6zM202.1,276.2l0,21.8l-3.1,0l0-21.8zM212.2,298.4q-2.3,0-3.9-1.1q-1.7-1-2.6-2.9q-.9-1.8-.9-4.1q0-2.4 1-4.2q.9-1.8 2.5-2.9q1.6-1 3.7-1q1.7,0 3,.6q1.3,.6 2.3,1.6q.9,1.1 1.5,2.6q.5,1.5 .5,3.3l0,.8l-13.1,0l0-2.3l11.4,0l-1.3,.7q0-1.5-.5-2.5q-.5-1.1-1.5-1.7q-.9-.5-2.2-.5q-1.3,0-2.2,.5q-1,.6-1.5,1.7q-.5,1-.5,2.5l0,1.3q0,1.5 .5,2.6q.5,1.1 1.5,1.7q1,.7 2.3,.7q1.1,0 1.8-.3q.8-.4 1.3-.9q.5-.6 .8-1.3l2.9,0q-.2,1.5-1.2,2.6q-1,1.2-2.4,1.8q-1.5,.7-3.2,.7zM227.7,298.4q-1.8,0-3.2-.6q-1.5-.6-2.3-1.7q-.9-1.1-1-2.8l3,0q.2,1.2 1,1.9q.9,.7 2.4,.7q1.5,0 2.3-.6q.9-.6 .9-1.5q0-.8-.6-1.3q-.6-.5-1.6-.7l-2.6-.6q-2.2-.4-3.3-1.5q-1.1-1.2-1.1-2.9q0-1.4 .7-2.4q.7-1 2.1-1.6q1.3-.6 3.1-.6q1.7,0 3.1,.6q1.3,.6 2.1,1.8q.8,1.1 .8,2.6l-2.9,0q0-1.1-.9-1.8q-.8-.8-2.2-.8q-1.3,0-2.1,.7q-.8,.6-.8,1.5q0,.8 .6,1.2q.6,.5 1.7,.8l2.6,.5q2.3,.5 3.3,1.6q1.1,1 1.1,2.7q0,1.5-.8,2.5q-.8,1.1-2.2,1.7q-1.4,.6-3.2,.6zM246.9,289.1l0,8.9l-3.1,0l0-15.5l3,0l0,3.9l-.7,0q.7-2.1 2.1-3.1q1.4-1.1 3.3-1.1q1.6,0 2.8,.7q1.3,.7 2,2.1q.8,1.3 .8,3.4l0,9.6l-3.1,0l0-9.3q0-1.8-.9-2.8q-.9-.9-2.5-.9q-1.1,0-1.9,.4q-.8,.4-1.3,1.4q-.5,.9-.5,2.3zM267.2,298.4q-2.2,0-3.9-1.1q-1.6-1-2.6-2.8q-.9-1.8-.9-4.2q0-2.4 .9-4.2q1-1.9 2.6-2.9q1.7-1 3.9-1q2.2,0 3.9,1q1.6,1 2.6,2.9q.9,1.8 .9,4.2q0,2.4-.9,4.2q-1,1.8-2.6,2.8q-1.7,1.1-3.9,1.1zM267.2,295.7q1.3,0 2.3-.7q.9-.6 1.5-1.9q.5-1.2 .5-2.8q0-1.7-.5-2.9q-.6-1.2-1.5-1.9q-1-.7-2.3-.7q-1.3,0-2.3,.7q-.9,.7-1.4,1.9q-.6,1.2-.6,2.9q0,1.6 .6,2.8q.5,1.3 1.4,1.9q1,.7 2.3,.7zM292,282.5l0,2.6l-9,0l0-2.6zM285.7,278.3l3.1,0l0,15.6q0,.9 .4,1.2q.3,.4 1.2,.4q.4,0 .8,0q.4,0 .8,0l0,2.5q-.4,0-1,0q-.5,0-1,0q-2.2,0-3.2-.9q-1.1-.9-1.1-2.8zM301,298.4q-2.2,0-3.8-1.1q-1.7-1-2.6-2.8q-1-1.8-1-4.2q0-2.4 1-4.2q.9-1.9 2.6-2.9q1.6-1 3.8-1q2.3,0 3.9,1q1.7,1 2.6,2.9q.9,1.8 .9,4.2q0,2.4-.9,4.2q-.9,1.8-2.6,2.8q-1.6,1.1-3.9,1.1zM301,295.7q1.4,0 2.3-.7q1-.6 1.5-1.9q.5-1.2 .5-2.8q0-1.7-.5-2.9q-.5-1.2-1.5-1.9q-.9-.7-2.3-.7q-1.3,0-2.2,.7q-1,.7-1.5,1.9q-.5,1.2-.5,2.9q0,1.6 .5,2.8q.5,1.3 1.5,1.9q.9,.7 2.2,.7zM311.2,298l0-15.5l2.9,0l0,2.5l.1,0q.4-1.2 1.3-1.9q1-.8 2.4-.8q.4,0 .7,.1q.3,0 .5,0l0,2.9q-.2,0-.7-.1q-.4,0-1,0q-.8,0-1.5,.3q-.8,.4-1.2,1.3q-.4,.8-.4,2.1l0,9.1zM321.4,298l0-15.5l2.9,0l0,2.5l.1,0q.4-1.2 1.3-1.9q.9-.8 2.4-.8q.4,0 .7,.1q.3,0 .4,0l0,2.9q-.1,0-.6-.1q-.4,0-1,0q-.8,0-1.6,.3q-.7,.4-1.1,1.3q-.4,.8-.4,2.1l0,9.1zM338.2,298.4q-2.3,0-4-1.1q-1.6-1-2.5-2.9q-.9-1.8-.9-4.1q0-2.4 .9-4.2q.9-1.8 2.6-2.9q1.6-1 3.7-1q1.6,0 3,.6q1.3,.6 2.2,1.6q1,1.1 1.5,2.6q.5,1.5 .5,3.3l0,.8l-13,0l0-2.3l11.4,0l-1.4,.7q0-1.5-.5-2.5q-.5-1.1-1.4-1.7q-1-.5-2.3-.5q-1.3,0-2.2,.5q-.9,.6-1.4,1.7q-.6,1-.6,2.5l0,1.3q0,1.5 .5,2.6q.6,1.1 1.5,1.7q1,.7 2.4,.7q1,0 1.8-.3q.8-.4 1.3-.9q.5-.6 .7-1.3l3,0q-.3,1.5-1.3,2.6q-.9,1.2-2.4,1.8q-1.4,.7-3.1,.7zM351,289.1l0,8.9l-3.1,0l0-15.5l3,0l0,3.9l-.7,0q.8-2.1 2.1-3.1q1.4-1.1 3.3-1.1q1.6,0 2.8,.7q1.3,.7 2,2.1q.8,1.3 .8,3.4l0,9.6l-3.1,0l0-9.3q0-1.8-.9-2.8q-.9-.9-2.5-.9q-1,0-1.9,.4q-.8,.4-1.3,1.4q-.5,.9-.5,2.3zM372.1,282.5l0,2.6l-8.9,0l0-2.6zM365.9,278.3l3.1,0l0,15.6q0,.9 .3,1.2q.4,.4 1.3,.4q.4,0 .8,0q.4,0 .7,0l0,2.5q-.4,0-.9,0q-.5,0-1,0q-2.2,0-3.3-.9q-1-.9-1-2.8zM388.3,298.4q-2.2,0-3.8-1.1q-1.7-1-2.6-2.8q-.9-1.8-.9-4.2q0-2.4 .9-4.2q.9-1.9 2.6-2.9q1.6-1 3.8-1q1.4,0 2.6,.4q1.2,.4 2.1,1.2q.9,.7 1.4,1.8q.6,1 .7,2.2l-3.1,0q-.1-.6-.4-1.2q-.3-.5-.7-.9q-.5-.4-1.1-.6q-.7-.3-1.4-.3q-1.4,0-2.3,.7q-1,.7-1.5,1.9q-.5,1.2-.5,2.9q0,1.6 .5,2.8q.5,1.3 1.5,1.9q.9,.7 2.3,.7q.7,0 1.4-.2q.6-.2 1-.6q.5-.4 .7-1q.3-.5 .5-1.2l3.1,0q-.1,1.2-.7,2.2q-.5,1.1-1.4,1.8q-.9,.8-2.1,1.2q-1.2,.5-2.6,.5zM400.8,276.2l0,21.8l-3.1,0l0-21.8zM409,298.2q-1.5,0-2.7-.5q-1.2-.5-1.9-1.5q-.7-1.1-.7-2.6q0-1.3 .5-2.2q.5-.8 1.3-1.3q.9-.5 2-.8q1.1-.3 2.3-.4q1.4-.2 2.3-.3q.8-.1 1.2-.3q.3-.3 .3-.8l0-.2q0-.7-.3-1.3q-.4-.6-1.1-.9q-.7-.3-1.7-.3q-1,0-1.7,.3q-.8,.3-1.2,.9q-.5,.5-.5,1.2l-3.1,0q.1-1.4 .9-2.6q.9-1.1 2.3-1.7q1.4-.7 3.4-.7q1.4,0 2.5,.4q1.2,.4 2,1q.8,.7 1.2,1.7q.4,.9 .4,2.1l0,10.6l-3,0l0-2.2l-.1,0q-.3,.6-.9,1.2q-.5,.5-1.4,.9q-.9,.3-2.3,.3zM409.7,295.8q1.3,0 2.2-.5q.9-.5 1.3-1.3q.5-.8 .5-1.8l0-1.8q-.2,.1-.6,.2q-.3,.1-.8,.2q-.6,.1-1.2,.2q-.6,.1-1.2,.2q-.8,.1-1.5,.4q-.8,.3-1.2,.8q-.5,.4-.5,1.2q0,.7 .4,1.2q.3,.4 1,.7q.7,.3 1.6,.3zM420.2,298l0-15.5l3.1,0l0,15.5zM421.7,279.9q-.8,0-1.4-.6q-.5-.5-.5-1.3q0-.8 .5-1.4q.6-.5 1.4-.5q.8,0 1.4,.5q.6,.6 .6,1.4q0,.8-.6,1.3q-.6,.6-1.4,.6zM426.8,298l0-15.5l3,0l0,3.3l-.3,0q.4-1.2 1.2-2q.7-.8 1.7-1.2q.9-.4 2-.4q1.8,0 3.1,1.1q1.2,1 1.5,2.5l-.4,0q.3-1 1-1.8q.7-.8 1.8-1.3q1-.5 2.3-.5q1.5,0 2.6,.7q1.2,.6 1.9,1.8q.7,1.3 .7,3.1l0,10.2l-3.1,0l0-9.9q0-1.7-.9-2.4q-1-.8-2.2-.8q-1,0-1.8,.5q-.7,.4-1.1,1.2q-.5,.7-.5,1.7l0,9.7l-3,0l0-10.1q0-1.4-.9-2.2q-.8-.8-2.1-.8q-.9,0-1.7,.5q-.8,.4-1.3,1.2q-.4,.8-.4,2.1l0,9.3zM458.1,298.4q-1.8,0-3.2-.6q-1.4-.6-2.3-1.7q-.8-1.1-1-2.8l3.1,0q.1,1.2 1,1.9q.8,.7 2.4,.7q1.4,0 2.3-.6q.8-.6 .8-1.5q0-.8-.6-1.3q-.6-.5-1.6-.7l-2.6-.6q-2.1-.4-3.3-1.5q-1.1-1.2-1.1-2.9q0-1.4 .7-2.4q.8-1 2.1-1.6q1.3-.6 3.1-.6q1.8,0 3.1,.6q1.4,.6 2.2,1.8q.7,1.1 .8,2.6l-3,0q0-1.1-.8-1.8q-.9-.8-2.2-.8q-1.4,0-2.1,.7q-.8,.6-.8,1.5q0,.8 .6,1.2q.6,.5 1.6,.8l2.7,.5q2.2,.5 3.3,1.6q1,1 1,2.7q0,1.5-.8,2.5q-.8,1.1-2.2,1.7q-1.4,.6-3.2,.6z"/></g></svg>
